<?xml version="1.0" encoding="UTF-8"?>
<svg id="Ebene_2" xmlns="http://www.w3.org/2000/svg" viewBox="0 0 50 50">
  <defs>
    <style>
      .cls-1 {
        fill: #fff;
      }

      .cls-2 {
        fill: #1e191a;
      }

      .cls-3 {
        fill: #265ca8;
      }
    </style>
  </defs>
  <g id="Ebene_1-2" data-name="Ebene_1">
    <g>
      <path class="cls-1" d="M50,25c0,3.57-.75,6.97-2.11,10.05-3.86,8.8-12.66,14.95-22.89,14.95s-19.03-6.15-22.89-14.95c-1.36-3.08-2.11-6.48-2.11-10.05s.75-6.97,2.1-10.04C5.97,6.15,14.76,0,25,0s19.03,6.15,22.9,14.96c1.35,3.07,2.1,6.47,2.1,10.04Z"/>
      <path class="cls-1" d="M50,25c0,3.57-.75,6.97-2.11,10.05-3.86,8.8-12.66,14.95-22.89,14.95s-19.03-6.15-22.89-14.95c-1.36-3.08-2.11-6.48-2.11-10.05s.75-6.97,2.1-10.04C5.97,6.15,14.76,0,25,0s19.03,6.15,22.9,14.96c1.35,3.07,2.1,6.47,2.1,10.04Z"/>
      <path class="cls-3" d="M47.9,14.96H2.1C5.97,6.15,14.76,0,25,0s19.03,6.15,22.9,14.96Z"/>
      <path class="cls-3" d="M47.9,14.96H2.1C5.97,6.15,14.76,0,25,0s19.03,6.15,22.9,14.96Z"/>
      <path class="cls-2" d="M47.89,35.05c-3.86,8.8-12.66,14.95-22.89,14.95s-19.03-6.15-22.89-14.95h45.78Z"/>
      <path class="cls-2" d="M47.89,35.05c-3.86,8.8-12.66,14.95-22.89,14.95s-19.03-6.15-22.89-14.95h45.78Z"/>
    </g>
  </g>
</svg>