<svg xmlns="http://www.w3.org/2000/svg" width="111.316" height="21.112" viewBox="0 0 111.316 21.112">
  <g id="Gruppe_405" data-name="Gruppe 405" transform="translate(-3996.896 -1957.308)">
    <path id="Pfad_107" data-name="Pfad 107" d="M7.336.42A18.963,18.963,0,0,1,3.78.084,11.219,11.219,0,0,1,.9-.812V-4.564a14.08,14.08,0,0,0,3.08,1.092,13.728,13.728,0,0,0,3.052.364,4.457,4.457,0,0,0,2.464-.56,1.781,1.781,0,0,0,.84-1.568,1.86,1.86,0,0,0-.42-1.232,3.807,3.807,0,0,0-1.218-.91q-.8-.406-2.45-1.078a10.686,10.686,0,0,1-3.976-2.506,4.975,4.975,0,0,1-1.232-3.43,4.96,4.96,0,0,1,.9-2.926,5.794,5.794,0,0,1,2.52-1.974,9.408,9.408,0,0,1,3.752-.7,15.2,15.2,0,0,1,3.08.28,12.425,12.425,0,0,1,2.632.868v3.64a10.935,10.935,0,0,0-4.928-1.232,4.727,4.727,0,0,0-2.464.546,1.723,1.723,0,0,0-.9,1.554,1.753,1.753,0,0,0,.42,1.2,3.663,3.663,0,0,0,1.176.84q.756.364,2.464,1.064A17.977,17.977,0,0,1,12.8-9.618,4.915,4.915,0,0,1,14.448-7.8a5.691,5.691,0,0,1,.532,2.59,4.942,4.942,0,0,1-1.918,4.144A9.263,9.263,0,0,1,7.336.42Zm8.2-19.992h4.536L25.452-5.656l5.4-13.916h4.508L27.552,0H23.38Zm22.176,0H51.3v3.584H41.972v4.564h6.86v3.276h-6.86V0H37.716Z" transform="translate(3996 1978)" fill="#ee5253"/>
    <path id="Pfad_106" data-name="Pfad 106" d="M1.96-19.572H9.212a7.216,7.216,0,0,1,4.8,1.456A5.33,5.33,0,0,1,15.736-13.8a5.3,5.3,0,0,1-1.708,4.312A7.3,7.3,0,0,1,9.212-8.064H4.144V0H1.96Zm7.084,9.66a5.623,5.623,0,0,0,3.3-.854,3.476,3.476,0,0,0,1.2-3.038,3.511,3.511,0,0,0-1.2-3.066,5.623,5.623,0,0,0-3.3-.854h-4.9v7.812Zm9.492-10.78h2.156V0H18.536ZM30.044.42a5.557,5.557,0,0,1-4.13-1.456,5.288,5.288,0,0,1-1.442-3.892V-13.44h2.156v8.624q0,3.528,3.668,3.528A5.3,5.3,0,0,0,33-1.96a6.241,6.241,0,0,0,2.086-2.128V-13.44H37.24V0h-2.1V-2.016A6,6,0,0,1,30.044.42Zm15.792,0A11.7,11.7,0,0,1,43.008.042,7.631,7.631,0,0,1,40.656-.9v-1.82a9.927,9.927,0,0,0,2.45,1.036,9.813,9.813,0,0,0,2.674.392,4.844,4.844,0,0,0,2.506-.49,1.627,1.627,0,0,0,.77-1.47,1.9,1.9,0,0,0-.336-1.19,2.767,2.767,0,0,0-1.12-.77,19.994,19.994,0,0,0-2.436-.784,14.256,14.256,0,0,1-2.59-.938A3.756,3.756,0,0,1,41.1-8.176a3.416,3.416,0,0,1-.5-1.932,3.133,3.133,0,0,1,1.47-2.786,7.016,7.016,0,0,1,3.906-.966,12.337,12.337,0,0,1,2.478.238,7.188,7.188,0,0,1,1.946.658v1.82a7.615,7.615,0,0,0-1.96-.714,10.511,10.511,0,0,0-2.38-.266,5.1,5.1,0,0,0-2.464.476,1.636,1.636,0,0,0-.84,1.54,1.84,1.84,0,0,0,.294,1.12,2.534,2.534,0,0,0,1.092.714,24.856,24.856,0,0,0,2.562.8,8.609,8.609,0,0,1,3.514,1.638,3.389,3.389,0,0,1,.994,2.59A3.158,3.158,0,0,1,49.882-.56,6.82,6.82,0,0,1,45.836.42Z" transform="translate(4057 1978)" fill="#383838"/>
  </g>
</svg>
