<svg xmlns="http://www.w3.org/2000/svg" xmlns:xlink="http://www.w3.org/1999/xlink" width="55.366" height="60" viewBox="0 0 55.366 60">
  <defs>
    <clipPath id="clip-path">
      <rect id="Rechteck_9" data-name="Rechteck 9" width="55.366" height="60" fill="none"/>
    </clipPath>
  </defs>
  <g id="Gruppe_5" data-name="Gruppe 5" clip-path="url(#clip-path)">
    <path id="Pfad_8" data-name="Pfad 8" d="M38.894,59.333,61.431,10.552H16.39ZM46.44,32.758H34l1.489,3.21H44.95l-1.092,2.383H36.578l2.316,4.964,1.324,2.813-1.324,2.813L37.6,46.128l-3.641-7.777-1.092-2.383-1.489-3.21-1.126-2.349H47.565ZM41.52,14.523l5.229,11.252h.331l5.262-11.252h2.614L48.6,28.125H45.259l-6.354-13.6ZM24.5,14.49H35.055l1.092,2.383H26.98a.257.257,0,0,0-.232.364l.861,1.887a1.812,1.812,0,0,0,1.654,1.059h6.156A3.416,3.416,0,0,1,38.6,22.234l2.085,4.435a1.017,1.017,0,0,1-.927,1.456H29.2l-1.092-2.383h8.8a.468.468,0,0,0,.43-.662l-.795-1.721a1.425,1.425,0,0,0-1.291-.827H28.6a3.125,3.125,0,0,1-2.846-1.82l-2.218-4.733a1.051,1.051,0,0,1,.96-1.489" transform="translate(-11.305 -7.278)" fill="#fff"/>
    <path id="Pfad_9" data-name="Pfad 9" d="M53.281,0H0L.861,1.887,2.151,4.7l22.5,48.781,1.787,3.905L27.634,60l1.191-2.614,1.787-3.905L53.116,4.7l1.291-2.813L55.366,0ZM51.991,4.138l-22.5,48.781L27.7,56.823l-1.787-3.905L3.408,4.138,2.118,1.325H53.281Z" transform="translate(0 -0.001)" fill="#fff"/>
  </g>
</svg>
