<?xml version="1.0" standalone="no"?>
<!DOCTYPE svg PUBLIC "-//W3C//DTD SVG 1.1//EN" "http://www.w3.org/Graphics/SVG/1.1/DTD/svg11.dtd" >
<svg xmlns="http://www.w3.org/2000/svg">
<metadata>
<json>
<![CDATA[
{
	"fontFamily": "iconfont",
	"designer": "TheNounProject",
	"designerURL": "https://thenounproject.com/",
	"description": "SVF Plus App\nFont generated by IcoMoon.",
	"copyright": "©2024",
	"majorVersion": 1,
	"minorVersion": 0,
	"version": "Version 1.0",
	"fontId": "iconfont",
	"psName": "iconfont",
	"subFamily": "Regular",
	"fullName": "iconfont"
}
]]>
</json>
</metadata>
<defs>
<font id="iconfont" horiz-adv-x="1024">
<font-face units-per-em="1024" ascent="960" descent="-64" />
<missing-glyph horiz-adv-x="1024" />
<glyph unicode="&#x20;" horiz-adv-x="512" d="" />
<glyph unicode="&#xe900;" glyph-name="edit" data-tags="edit" d="M632.874 835.802l-580.2-580.2c-3.885-3.889-6.603-8.946-7.581-14.598l-0.023-0.163-44.729-272.719c-0.217-1.288-0.341-2.773-0.341-4.285 0-14.963 12.13-27.093 27.093-27.093 1.474 0 2.92 0.118 4.33 0.344l-0.155-0.021 274.061 43.195c5.888 0.956 11.018 3.682 14.953 7.605l580.199 580.199zM671.213 874.141l267.799-267.799 45.368 45.368c24.478 24.47 39.619 58.279 39.619 95.624s-15.141 71.155-39.618 95.624l-76.678 76.678c-24.47 24.478-58.279 39.619-95.624 39.619s-71.155-15.141-95.624-39.618v0z" />
<glyph unicode="&#xe901;" glyph-name="external" data-tags="external" d="M793.286 959.559c-14.007-0.185-25.29-11.583-25.29-25.616 0-6.938 2.759-13.232 7.238-17.845l66.059-66.059-519.193-518.974c-10.716-9.463-17.439-23.234-17.439-38.575 0-28.379 23.005-51.384 51.384-51.384 15.304 0 29.046 6.691 38.459 17.308l0.047 0.054 519.12 519.267 66.065-66.065c4.665-4.826 11.196-7.822 18.428-7.822 14.149 0 25.618 11.47 25.618 25.618 0 0.144-0.001 0.287-0.004 0.43v-0.022 204.8c-0.166 14.022-11.571 25.325-25.617 25.325-0.026 0-0.053 0-0.079 0h0.004zM179.326 857.232c-98.734-0.457-178.652-80.373-179.108-179.065v-563.132c0.416-98.736 80.365-178.661 179.072-179.035h562.979c98.742 0.374 178.693 80.298 179.108 178.995v450.159c0.14 1.424 0.22 3.079 0.22 4.752 0 28.379-23.005 51.384-51.384 51.384s-51.384-23.005-51.384-51.384c0-1.673 0.080-3.328 0.236-4.96l-0.016 0.208v-450.119c0.002-0.22 0.004-0.48 0.004-0.74 0-41.919-33.982-75.9-75.9-75.9-0.311 0-0.622 0.002-0.932 0.006h-562.896c-0.262-0.003-0.572-0.005-0.883-0.005-42.081 0-76.194 34.113-76.194 76.194 0 0.157 0 0.313 0.001 0.47v-0.024 562.65c-0.001 0.132-0.001 0.289-0.001 0.446 0 42.081 34.113 76.194 76.194 76.194 0.31 0 0.62-0.002 0.93-0.006h449.999c28.379 0 51.384 23.005 51.384 51.384s-23.005 51.384-51.384 51.384v0z" />
<glyph unicode="&#xe902;" glyph-name="injured" data-tags="injured" d="M392.064-64v413.312h-392.064v218.56h392.064v392.128h218.624v-392.128h413.312v-218.56h-413.312v-413.312z" />
<glyph unicode="&#xe903;" glyph-name="login" data-tags="login" d="M716.543 959.871c19.408 0 35.14-15.733 35.14-35.14v0c0-19.408-15.733-35.14-35.14-35.14v0h-518.465v-883.311h518.465c19.408 0 35.14-15.733 35.14-35.14v0c0-19.408-15.733-35.14-35.14-35.14v0h-553.413c-19.408 0-35.14 15.733-35.14 35.14v0 953.72c0 19.408 15.733 35.14 35.14 35.14v0zM688.636 669.915l197.145-197.209c1.606-1.606 3.058-3.364 4.337-5.25l0.081-0.125c0.576-0.896 0.961-1.793 1.408-2.625s1.28-2.176 1.793-3.392 0.768-2.432 1.088-3.648c0.29-0.785 0.576-1.77 0.801-2.78l0.031-0.165c0.439-2.069 0.691-4.445 0.691-6.881s-0.252-4.813-0.73-7.106l0.039 0.225c-0.274-1.176-0.56-2.139-0.894-3.080l0.062 0.199c-0.32-1.216-0.64-2.496-1.088-3.713s-1.152-2.176-1.728-3.264-0.896-1.856-1.472-2.688c-1.319-2.052-2.776-3.835-4.411-5.435l-0.005-0.005-197.080-197.336c-6.361-6.37-15.154-10.312-24.867-10.312s-18.506 3.941-24.867 10.311v0c-6.356 6.368-10.285 15.158-10.285 24.867s3.93 18.499 10.285 24.868l137.233 137.425h-427.445c-19.408 0-35.14 15.733-35.14 35.14v0c0 0 0 0 0 0 0 19.372 15.705 35.076 35.076 35.076 0.022 0 0.045 0 0.067 0h427.378l-137.169 137.298c-6.351 6.358-10.28 15.138-10.28 24.835s3.929 18.477 10.28 24.836v0c6.312 6.365 15.060 10.305 24.729 10.305 0.037 0 0.075 0 0.113 0h-0.006c9.591-0.061 18.253-3.989 24.513-10.303l0.002-0.002z" />
<glyph unicode="&#xe904;" glyph-name="check" data-tags="check" d="M379.488 91.494c-0.009 0-0.020 0-0.031 0-13.055 0-25.095 4.345-34.754 11.667l0.143-0.104-321.814 242.397c-14.048 10.617-23.033 27.292-23.033 46.065 0 31.802 25.78 57.582 57.582 57.582 13.028 0 25.046-4.327 34.694-11.621l-0.145 0.105 281.46-211.902 551.727 561.585c10.458 10.643 25.004 17.239 41.090 17.239 31.807 0 57.592-25.785 57.592-57.592 0-15.72-6.299-29.97-16.51-40.362l0.008 0.008-587.151-597.701c-10.441-10.637-24.97-17.228-41.038-17.228-0.019 0-0.037 0-0.056 0h0.003z" />
<glyph unicode="&#xe905;" glyph-name="dashboard" data-tags="dashboard" d="M512.665 857.409c5.777-0.133 11.086-2.031 15.437-5.174l-0.081 0.055 486.265-383.893c5.95-4.89 9.715-12.249 9.715-20.489 0-5.999-1.996-11.532-5.361-15.971l0.048 0.066c-4.955-5.718-12.229-9.313-20.342-9.313-6.048 0-11.63 1.998-16.12 5.371l0.070-0.050-470.295 371.148-470.244-371.097c-4.35-3.47-9.928-5.568-15.996-5.568-14.227 0-25.761 11.534-25.761 25.761 0 8.159 3.793 15.433 9.713 20.153l0.052 0.040 182.324 143.934v219.536c0 14.134 11.458 25.593 25.593 25.593v0h102.372c14.134 0 25.593-11.458 25.593-25.593v0-98.379l150.333 118.751c4.622 3.205 10.349 5.119 16.523 5.119 0.058 0 0.114 0 0.172-0.001h-0.009zM294.306 806.224h-51.186v-153.557l51.186 40.386zM831.757 513.134l51.186-40.386v-408.667c0-14.134-11.458-25.593-25.593-25.593v0h-217.386c-14.134 0-25.593 11.458-25.593 25.593v0 230.336h-204.743v-230.336c0-14.134-11.458-25.593-25.593-25.593v0h-217.54c-14.134 0-25.593 11.458-25.593 25.593v0 408.667l51.186 40.386v-423.46h166.354v230.336c0 14.134 11.458 25.593 25.593 25.593v0h255.929c14.134 0 25.593-11.458 25.593-25.593v0-230.336h166.354z" />
<glyph unicode="&#xe906;" glyph-name="calendar" data-tags="calendar" d="M879.381 840.405h-49.835v13.192c0 45.754-37.091 82.845-82.845 82.845s-82.845-37.091-82.845-82.845v0-13.192h-303.713v13.192c0 45.754-37.091 82.845-82.845 82.845s-82.845-37.091-82.845-82.845v-13.192h-49.835c-79.815-0.138-144.48-64.804-144.619-144.606v-591.865c0.278-79.732 64.925-144.271 144.671-144.375h734.71c79.815 0.138 144.48 64.804 144.619 144.606v591.621c-0.138 79.815-64.804 144.48-144.606 144.619h-0.013zM728.227 853.536c0 10.253 8.313 18.566 18.566 18.566s18.566-8.313 18.566-18.566v-95.639c0-10.253-8.313-18.566-18.566-18.566s-18.566 8.313-18.566 18.566v95.639zM258.825 853.536c0 10.253 8.313 18.566 18.566 18.566s18.566-8.313 18.566-18.566v0-95.639c0-10.253-8.313-18.566-18.566-18.566s-18.566 8.313-18.566 18.566v0 95.639zM144.68 776.096h49.835v-18.322c0-45.754 37.091-82.845 82.845-82.845s82.845 37.091 82.845 82.845v18.322h303.713v-18.322c0-45.754 37.091-82.845 82.845-82.845s82.845 37.091 82.845 82.845v0 18.322h49.835c44.36-0.070 80.302-36.012 80.371-80.365v-71.706h-895.504v71.76c0.070 44.36 36.012 80.302 80.365 80.371h0.007zM879.381 23.624h-734.7c-44.346 0.104-80.267 36.025-80.371 80.362v455.731h895.382v-455.783c-0.104-44.346-36.025-80.267-80.362-80.371h-0.010z" />
<glyph unicode="&#xe907;" glyph-name="chevron-up" data-tags="chevron-up" d="M944.606 142.042c-22.462 0.002-42.74 9.352-57.157 24.371l-0.026 0.027-377.976 393.479-374.101-388.65c-14.349-14.235-34.111-23.031-55.927-23.031-43.863 0-79.42 35.557-79.42 79.42 0 20.773 7.976 39.684 21.032 53.837l-0.050-0.054 431.41 448.184c14.47 14.993 34.736 24.311 57.178 24.334h0.004c22.456-0.034 42.725-9.375 57.158-24.373l0.025-0.025 435.095-453.076c13.706-14.25 22.148-33.651 22.148-55.022 0-43.831-35.507-79.369-79.326-79.42h-0.005z" />
<glyph unicode="&#xe908;" glyph-name="chevron-left" data-tags="chevron-left" d="M731.467-64c-0.044 0-0.097 0-0.15 0-21.278 0-40.582 8.448-54.744 22.171l0.021-0.020-446.385 429.739c-14.984 14.388-24.295 34.587-24.295 56.961s9.311 42.573 24.268 56.935l0.027 0.026 451.321 433.474c14.45 15.235 34.839 24.713 57.441 24.713 43.692 0 79.113-35.42 79.113-79.113 0-23.69-10.412-44.947-26.911-59.446l-0.089-0.077-391.955-376.449 387.145-372.715c14.936-14.411 24.21-34.603 24.21-56.961 0-43.682-35.403-79.096-79.082-79.113h-0.002z" />
<glyph unicode="&#xe909;" glyph-name="chevron-down" data-tags="chevron-down" d="M513.458 142.541v0c-22.509 0.010-42.828 9.378-57.28 24.423l-0.026 0.027-436.094 454.050c-12.451 13.983-20.059 32.516-20.059 52.826 0 43.957 35.634 79.591 79.591 79.591 21.388 0 40.805-8.436 55.106-22.162l-0.028 0.026 378.789-394.324 374.905 389.486c14.38 14.265 34.184 23.081 56.047 23.081 43.957 0 79.591-35.634 79.591-79.591 0-20.818-7.993-39.77-21.077-53.953l0.050 0.054-432.337-449.147c-14.494-15.037-34.808-24.378-57.304-24.387h-0.001z" />
<glyph unicode="&#xe90a;" glyph-name="chevron-right" data-tags="chevron-right" d="M286.158-64c-43.717 0.016-79.15 35.458-79.15 79.177 0 22.409 9.309 42.643 24.271 57.046l392.361 376.841-387.458 372.953c-16.093 14.549-26.161 35.503-26.161 58.806 0 43.728 35.449 79.177 79.177 79.177 22.248 0 42.354-9.176 56.737-23.951l0.017-0.018 446.81-430.087c14.948-14.423 24.23-34.631 24.23-57.007s-9.282-42.585-24.207-56.984l-451.71-433.784c-14.117-13.677-33.386-22.106-54.625-22.106-0.080 0-0.161 0-0.241 0h0.012z" />
<glyph unicode="&#xe90b;" glyph-name="close" data-tags="close" d="M623.627 449.024l376.663 373.46c14.644 14.515 23.709 34.636 23.709 56.874 0 44.222-35.848 80.071-80.071 80.071-21.983 0-41.898-8.859-56.368-23.203l0.006 0.006-376.599-373.46-369.938 373.332c-14.515 14.644-34.636 23.709-56.874 23.709-44.222 0-80.071-35.848-80.071-80.071 0-21.983 8.859-41.898 23.203-56.368l369.868-373.327-372.499-369.361c-15.207-14.596-24.656-35.091-24.656-57.792 0-44.216 35.843-80.059 80.059-80.059 22.463 0 42.764 9.251 57.304 24.151l0.016 0.016 372.499 369.041 372.691-376.15c14.515-14.644 34.636-23.709 56.874-23.709 44.222 0 80.071 35.848 80.071 80.071 0 21.983-8.859 41.898-23.203 56.368l0.006-0.006z" />
<glyph unicode="&#xe90c;" glyph-name="add" data-tags="add" d="M237.952-64c-131.358 0.146-237.807 106.593-237.952 237.937v548.11c0.146 131.358 106.593 237.807 237.937 237.952h548.11c131.358-0.146 237.807-106.593 237.952-237.937v-548.11c-0.146-131.358-106.593-237.807-237.937-237.952h-0.014zM67.969 722.049v-548.096c0.109-93.836 76.148-169.875 169.974-169.984h548.107c93.836 0.109 169.875 76.148 169.984 169.974v548.107c-0.109 93.836-76.148 169.875-169.974 169.984h-548.107c-93.836-0.109-169.875-76.148-169.984-169.974v-0.011zM478.017 261.247v152.96h-152.96c-18.769 0-33.984 15.215-33.984 33.984v0c0 18.769 15.215 33.984 33.984 33.984v0h152.96v152.96c0 18.769 15.215 33.984 33.984 33.984v0c18.769 0 33.984-15.215 33.984-33.984v0-152.96h152.96c18.769 0 33.984-15.215 33.984-33.984v0c0-18.769-15.215-33.984-33.984-33.984v0h-152.96v-152.96c0-18.769-15.215-33.984-33.984-33.984v0c0 0-0.001 0-0.001 0-18.679 0-33.839 15.069-33.983 33.714v0.014z" />
<glyph unicode="&#xe90d;" glyph-name="group" data-tags="group" d="M1024 330.636v-96.017c0-47.12-38.198-85.318-85.318-85.318v0h-151.234c1.211 6.3 1.905 13.545 1.905 20.952 0 0.141 0 0.281-0.001 0.422v-0.022 127.977c0 0.031 0 0.068 0 0.106 0 65.621-22.924 125.887-61.201 173.228l0.408-0.521c16.972 14.061 36.995 25.15 58.857 32.113l1.256 0.346c-37.944 19.951-63.377 59.098-63.377 104.186 0 64.796 52.528 117.324 117.324 117.324s117.324-52.528 117.324-117.324c0-45.087-25.433-84.234-62.735-103.877l-0.642-0.308c74.418-23.805 127.361-92.349 127.388-173.263v-0.003zM234.648 298.63v-127.977c-0.001-0.12-0.001-0.262-0.001-0.404 0-7.406 0.693-14.65 2.018-21.67l-0.113 0.723h-151.234c-47.12 0-85.318 38.198-85.318 85.318v0 96.017c0.043 80.912 52.978 149.448 126.102 172.909l1.286 0.356c-37.944 19.951-63.377 59.098-63.377 104.186 0 64.796 52.528 117.324 117.324 117.324s117.324-52.528 117.324-117.324c0-45.087-25.433-84.234-62.735-103.877l-0.642-0.308c23.121-7.295 43.146-18.386 60.406-32.695l-0.293 0.236c-37.869-46.814-60.793-107.076-60.793-172.691 0-0.043 0-0.085 0-0.128v0.006zM573.11 525.027c52.558 23.889 88.446 75.931 88.446 136.354 0 82.472-66.857 149.33-149.33 149.33s-149.33-66.857-149.33-149.33c0-60.424 35.888-112.465 87.511-135.973l0.935-0.381c-100.824-27.724-173.679-118.541-173.764-226.387v-128.033c0.026-47.11 38.209-85.293 85.316-85.318h298.661c47.11 0.026 85.293 38.209 85.318 85.316v128.025c-0.069 107.862-72.932 198.687-172.117 226.010l-1.648 0.387z" />
<glyph unicode="&#xe90e;" glyph-name="logout" data-tags="logout" d="M307.456-63.871c-19.408 0-35.14 15.733-35.14 35.14v0c0 19.408 15.733 35.14 35.14 35.14v0h518.465v883.311h-518.465c-19.408 0-35.14 15.733-35.14 35.14v0c0 19.408 15.733 35.14 35.14 35.14v0h553.413c19.408 0 35.14-15.733 35.14-35.14v0-953.72c0-19.408-15.733-35.14-35.14-35.14v0zM335.364 226.085l-197.145 197.209c-1.606 1.606-3.058 3.364-4.337 5.25l-0.081 0.125c-0.576 0.896-0.961 1.793-1.408 2.625s-1.28 2.176-1.793 3.392-0.768 2.432-1.088 3.648c-0.29 0.785-0.576 1.77-0.801 2.78l-0.031 0.165c-0.439 2.069-0.691 4.445-0.691 6.881s0.252 4.813 0.73 7.106l-0.039-0.225c0.274 1.176 0.56 2.139 0.894 3.080l-0.062-0.199c0.32 1.216 0.64 2.496 1.088 3.713s1.152 2.176 1.728 3.264 0.896 1.856 1.472 2.688c1.319 2.052 2.776 3.835 4.411 5.435l0.005 0.005 197.080 197.336c6.361 6.37 15.154 10.312 24.867 10.312s18.506-3.941 24.867-10.311v0c6.356-6.368 10.285-15.158 10.285-24.867s-3.93-18.499-10.285-24.868l-137.233-137.425h427.445c19.408 0 35.14-15.733 35.14-35.14v0c0 0 0 0 0 0 0-19.372-15.705-35.076-35.076-35.076-0.022 0-0.045 0-0.067 0h-427.378l137.169-137.298c6.351-6.358 10.28-15.138 10.28-24.835s-3.929-18.477-10.28-24.836v0c-6.312-6.365-15.060-10.305-24.729-10.305-0.037 0-0.075 0-0.113 0h0.006c-9.591 0.061-18.253 3.989-24.513 10.303l-0.002 0.002z" />
<glyph unicode="&#xe90f;" glyph-name="question-marl" data-tags="question-marl" d="M485.474 175.601c-34.38 0.287-62.173 28.080-62.46 62.433v24.985c-4.544 136.247 87.418 195.252 154.358 238.385 72.635 46.525 113.529 77.179 113.529 159.99 0 105.593-77.179 173.685-196.404 173.685-0.185 0.001-0.404 0.001-0.623 0.001-88.925 0-161.014-72.088-161.014-161.014 0-4.144 0.157-8.251 0.464-12.317l-0.033 0.541c0.020-0.596 0.032-1.296 0.032-1.999 0-34.496-27.964-62.46-62.46-62.46s-62.46 27.964-62.46 62.46c0 0.703 0.012 1.403 0.035 2.101l-0.003-0.101c-0.204 4.032-0.321 8.753-0.321 13.503 0 156.963 127.243 284.206 284.206 284.206 0 0 0 0 0.001 0h1.152c189.556 0 322.412-122.616 322.412-298.541 0-155.51-98.746-219.122-170.293-265.647-67.004-43.133-98.746-67.004-96.506-129.4v-28.35c-0.855-34.55-28.964-62.256-63.592-62.46h-0.020zM562.717 7.548c0-39.514-32.033-71.547-71.547-71.547s-71.547 32.033-71.547 71.547c0 39.514 32.033 71.547 71.547 71.547s71.547-32.033 71.547-71.547z" />
<glyph unicode="&#xe910;" glyph-name="svf" data-tags="svf" d="M510.42 71.356l384.61 832.486h-768.692zM639.194 524.894h-212.385l25.412-54.775h161.56l-18.632-40.686h-124.297l39.501-84.73 22.582-47.994-22.582-47.994-22.055 47.994-62.148 132.724-18.632 40.686-25.412 54.775-19.224 40.093h295.402zM554.925 836.295l89.536-192.173h5.662l89.799 192.041h44.636l-108.496-232.003h-57.079l-108.43 232.135zM264.395 836.887h180.191l18.632-40.686h-156.161c-2.399-0.049-4.325-2.005-4.325-4.41 0-0.644 0.138-1.255 0.386-1.806l-0.011 0.028 14.681-32.193c5.012-10.734 15.714-18.039 28.123-18.039 0.042 0 0.084 0 0.126 0h105.33c0.243 0.004 0.53 0.006 0.817 0.006 23.775 0 44.225-14.241 53.284-34.659l0.147-0.372 35.551-75.71c1.056-2.178 1.673-4.737 1.673-7.44 0-9.599-7.782-17.381-17.381-17.381-0.033 0-0.065 0-0.098 0h-180.45l-18.632 40.686h150.235c0.045-0.001 0.097-0.001 0.15-0.001 4.4 0 7.966 3.567 7.966 7.966 0 1.219-0.274 2.374-0.763 3.408l0.021-0.048-13.562 29.362c-3.95 8.387-12.332 14.089-22.046 14.089-0.003 0-0.006 0-0.009 0h-113.5c-0.037 0-0.081 0-0.124 0-21.381 0-39.822 12.583-48.324 30.747l-0.138 0.327-37.856 80.78c-1.041 2.202-1.649 4.783-1.649 7.506 0 9.889 8.017 17.907 17.907 17.907 0.047 0 0.095 0 0.142-0.001h-0.007zM948.883 959.999h-909.316l14.681-32.259 22.055-47.994 384.017-832.486 30.482-66.625 20.343-44.636 20.343 44.636 30.482 66.625 384.083 832.486 21.792 47.994 16.591 32.259zM926.828 889.424l-384.017-832.552-30.547-66.691-30.482 66.625-406.071 880.546h873.173z" />
<glyph unicode="&#xe911;" glyph-name="info" data-tags="info" d="M512 960c-282.77 0-512-229.23-512-512s229.23-512 512-512c282.77 0 512 229.23 512 512v0c0 282.77-229.23 512-512 512v0zM566.848 512v-291.136c0-30.292-24.556-54.848-54.848-54.848s-54.848 24.556-54.848 54.848v0 0 291.136c0 30.292 24.556 54.848 54.848 54.848s54.848-24.556 54.848-54.848v0zM566.848 674.688c0-30.292-24.556-54.848-54.848-54.848s-54.848 24.556-54.848 54.848v0 0.768c0 30.292 24.556 54.848 54.848 54.848s54.848-24.556 54.848-54.848v0z" />
<glyph unicode="&#xe912;" glyph-name="thumb-down" data-tags="thumb-down" d="M854.391 442.377h145.346c0.086-0.001 0.186-0.002 0.287-0.002 13.242 0 23.977 10.735 23.977 23.977 0 0.101-0.001 0.202-0.002 0.302v-0.015 387.684c0.001 0.086 0.002 0.186 0.002 0.287 0 13.242-10.735 23.977-23.977 23.977-0.101 0-0.202-0.001-0.302-0.002h-145.331c-0.153 0.004-0.334 0.005-0.516 0.005-13.242 0-23.977-10.735-23.977-23.977 0-0.103 0.001-0.204 0.002-0.307v0.015-387.684c-0.001-0.087-0.002-0.189-0.002-0.291 0-13.242 10.735-23.977 23.977-23.977 0.181 0 0.362 0.002 0.542 0.006l-0.027-0.001zM0.071 415.032c-0.004-0.316-0.006-0.69-0.006-1.063 0-51.108 41.432-92.539 92.539-92.539 1.85 0 3.687 0.054 5.51 0.161l-0.252-0.012h291.148c-25.229-42.528-40.14-93.746-40.14-148.448 0-33.597 5.625-65.881 15.984-95.96l-0.62 2.071c16.616-49.168 60.86-84.562 113.805-87.897l0.371-0.019h0.742c1.52-0.133 3.29-0.209 5.076-0.209 31.748 0 57.917 23.885 61.518 54.666l0.028 0.29c7.479 71.988 40.761 199.408 88.429 244.621 37.119 33.429 80.656 60.625 128.415 79.435l2.887 1.002 26.888 12.502c0 1.941 0 3.882 0 5.709v451.279l-20.609 7.022c-88.718 34.932-191.419 55.762-298.817 57.082l-0.551 0.005h-235.316c-1.572 0.095-3.408 0.15-5.258 0.15-51.108 0-92.539-41.432-92.539-92.539 0-0.374 0.002-0.747 0.006-1.119l-0.001 0.057c0.036-14.501 3.272-28.237 9.040-40.551l-0.248 0.59c-21.453-3.473-40.057-13.746-53.961-28.497l-0.044-0.047c-15.15-16.473-24.436-38.546-24.436-62.787 0-0.244 0.001-0.488 0.003-0.731v0.037c0.014-14.494 3.232-28.234 8.982-40.553l-0.248 0.591c-44.57-6.562-78.394-44.54-78.394-90.418 0-0.525 0.004-1.049 0.013-1.572l-0.001 0.078c-0.001-0.156-0.002-0.34-0.002-0.524 0-25.503 10.172-48.63 26.68-65.545l-0.019 0.019c-16.457-16.916-26.607-40.042-26.607-65.539 0-0.28 0.001-0.56 0.004-0.84v0.043z" />
<glyph unicode="&#xe913;" glyph-name="invisible" data-tags="invisible" d="M1020.588 435.411c-52.529-87.178-123.98-157.973-209.013-208.221l-2.769-1.514c-21.534-12.83-46.922-25.454-73.269-36.218l-3.917-1.415-45.889 79.426c46.142 46.027 74.691 109.674 74.691 179.99 0 0.196 0 0.393-0.001 0.59v-0.030c0.004 0.54 0.007 1.18 0.007 1.82 0 136.249-108.552 247.144-243.889 250.917l-0.348 0.008h-8.384c-23.749-0.429-46.461-4.187-67.904-10.829l1.726 0.461-29.569 51.201c28.719 5.176 61.909 8.262 95.775 8.511l0.228 0.002h7.68c213.862-1.305 400.64-116.027 503.358-287l1.489-2.672c2.145-3.58 3.413-7.898 3.413-12.512s-1.268-8.933-3.475-12.625l0.062 0.112zM636.257 448.211c-0.182 68.497-55.716 123.963-124.221 124.036h-2.247l108.803-188.166c11.056 18.128 17.601 40.057 17.601 63.514 0 0.149 0 0.298-0.001 0.447v-0.023zM774.437 42.375c2.075-3.534 3.301-7.784 3.301-12.32 0-13.611-11.034-24.645-24.645-24.645-9.075 0-17.004 4.905-21.281 12.209l-0.063 0.117-83.203 144.132q-18.176-4.288-36.673-7.488c-28.717-5.172-61.908-8.258-95.771-8.511l-0.232-0.002h-7.68c-213.783 1.351-400.488 116.003-503.231 286.876l-1.489 2.669c-2.18 3.602-3.47 7.955-3.47 12.608s1.29 9.006 3.532 12.719l-0.062-0.111c52.512 87.192 123.967 157.991 209.014 208.222l2.768 1.513c21.54 12.822 46.93 25.426 73.281 36.162l3.905 1.406q16.769 6.4 33.857 12.352l-76.674 133.316c-2.072 3.535-3.296 7.784-3.296 12.32 0 13.627 11.046 24.673 24.673 24.673 9.091 0 17.033-4.916 21.313-12.236l0.063-0.117 405.388-702.549zM616.032 218.508l-64.514 111.747c-11.099-3.853-23.898-6.178-37.208-6.399l-0.105-0.002h-2.176c-0.013 0-0.029 0-0.043 0-68.574 0-124.164 55.59-124.164 124.164 0 36.989 16.174 70.2 41.835 92.946l0.13 0.112-64.002 111.108c-62.247-46.783-102.084-120.478-102.084-203.477 0-0.22 0-0.439 0.001-0.659v0.034c-0.004-0.54-0.007-1.18-0.007-1.82 0-136.249 108.552-247.144 243.889-250.917l0.348-0.008h8.384c36.378 0.611 70.626 9.115 101.302 23.865l-1.459-0.632z" />
<glyph unicode="&#xe914;" glyph-name="thumb-up" data-tags="thumb-up" d="M169.391 453.824h-145.125c-0.086 0.001-0.186 0.002-0.287 0.002-13.242 0-23.978-10.736-23.978-23.978 0-0.101 0.001-0.202 0.002-0.302v0.015-387.762c-0.001-0.086-0.002-0.186-0.002-0.287 0-13.242 10.736-23.978 23.978-23.978 0.101 0 0.202 0.001 0.302 0.002h145.11c0.069-0.001 0.149-0.001 0.23-0.001 13.242 0 23.978 10.736 23.978 23.978 0 0.101-0.001 0.202-0.002 0.302v-0.015 387.477c0.004 0.17 0.007 0.371 0.007 0.572 0 13.242-10.736 23.978-23.978 23.978-0.083 0-0.165 0-0.248-0.001h0.012zM1023.987 480.828c0.004 0.316 0.006 0.69 0.006 1.063 0 51.111-41.434 92.545-92.545 92.545-1.85 0-3.687-0.054-5.51-0.161l0.252 0.012h-291.164c25.283 42.564 40.226 93.838 40.226 148.602 0 33.567-5.614 65.822-15.954 95.878l0.62-2.071c-16.672 49.099-60.904 84.423-113.814 87.73l-0.368 0.019h-0.799c-1.508 0.13-3.261 0.205-5.033 0.205-31.708 0-57.851-23.824-61.507-54.548l-0.029-0.293c-7.479-71.992-40.763-199.419-88.434-244.635-37.121-33.43-80.661-60.628-128.422-79.44l-2.888-1.002-26.776-12.503c0-1.941 0-3.882 0-5.709v-451.305l20.324-6.623c88.723-34.933 191.43-55.765 298.834-57.086l0.551-0.005h235.329c1.572-0.095 3.409-0.15 5.259-0.15 51.111 0 92.545 41.434 92.545 92.545 0 0.374-0.002 0.747-0.006 1.12l0.001-0.057c-0.036 14.502-3.272 28.239-9.040 40.553l0.248-0.59c21.455 3.474 40.059 13.746 53.964 28.498l0.044 0.047c15.151 16.474 24.438 38.548 24.438 62.79 0 0.244-0.001 0.488-0.003 0.731v-0.037c-0.014 14.495-3.232 28.235-8.983 40.555l0.248-0.591c44.572 6.562 78.398 44.543 78.398 90.423 0 0.525-0.004 1.049-0.013 1.572l0.001-0.079c0.001 0.156 0.002 0.34 0.002 0.525 0 25.505-10.173 48.633-26.681 65.549l0.019-0.019c16.491 16.923 26.662 40.073 26.662 65.599 0 0.12 0 0.24-0.001 0.36v-0.019z" />
<glyph unicode="&#xe915;" glyph-name="trash" data-tags="trash" d="M634.555 960v0c45.24 0 81.913-36.674 81.913-81.913v-122.871h246.53c22.619 0 40.957-18.337 40.957-40.957s-18.337-40.957-40.957-40.957h-91.147l-71.023-628.162-0.054-0.574c-7.122-61.121-59.073-108.56-122.106-108.566h-333.337c-63.032 0.006-114.983 47.443-122.16 109.14l-71.023 628.162h-91.147c-22.619 0-40.957 18.337-40.957 40.957s18.337 40.957 40.957 40.957h245.819v122.871c0 45.24 36.674 81.913 81.913 81.913zM634.555 754.822v123.265h-245.819v-122.871z" />
<glyph unicode="&#xe916;" glyph-name="visible" data-tags="visible" d="M616.331 448.766c0-57.637-46.724-104.361-104.361-104.361s-104.361 46.724-104.361 104.361c0 57.637 46.724 104.361 104.361 104.361s104.361-46.724 104.361-104.361zM0 450.146s459.909-619.15 1024 0c-564.091 609.494-1024 0-1024 0zM527.804 244.423c-6.278-0.831-13.582-1.332-20.992-1.379l-0.060-0.001c-27.006 0.028-52.579 6.13-75.438 17.011l1.066-0.457c-74.92 31.818-126.506 104.775-126.506 189.78 0 113.552 92.052 205.603 205.603 205.603s205.603-92.052 205.603-205.603c0-107.805-82.971-196.232-188.538-204.905l-0.738-0.049z" />
<glyph unicode="&#xe917;" glyph-name="warning" data-tags="warning" horiz-adv-x="1140" d="M1122.501 135.283l-438.124 758.645c-22.89 39.751-65.138 66.083-113.537 66.083-0.603 0-1.205-0.004-1.806-0.012l0.091 0.001h-1.212c-0.262 0.002-0.572 0.003-0.883 0.003-47.944 0-89.724-26.386-111.612-65.429l-0.332-0.645-437.055-758.645c-11.391-19.169-18.123-42.262-18.123-66.928 0-73.087 59.113-132.368 132.136-132.641h875.276c73.379 0.562 132.647 60.178 132.647 133.636 0 24.243-6.455 46.978-17.741 66.581l0.344-0.648zM533.062 704.339c11.18 11.959 27.050 19.411 44.661 19.411 1.59 0 3.166-0.061 4.726-0.18l-0.207 0.013c1.737 0.22 3.747 0.346 5.787 0.346 18.878 0 35.238-10.777 43.265-26.514l0.127-0.275c8.434-19.471 13.34-42.146 13.34-65.967 0-2.544-0.056-5.074-0.167-7.59l0.013 0.358c0-18.032-1.212-37.205-2.423-57.59l-18.032-212.469c-0.438-20.968-5.252-40.705-13.56-58.482l0.374 0.892c-6.514-11.443-18.562-19.074-32.406-19.244h-0.024c-0.891-0.088-1.927-0.138-2.974-0.138-13.126 0-24.41 7.885-29.375 19.177l-0.081 0.206c-6.549 17.558-11.222 37.929-13.12 59.099l-0.066 0.914-14.255 205.27q-3.635 61.225-3.635 86.456c-0.158 1.86-0.248 4.026-0.248 6.212 0 19.16 6.911 36.706 18.376 50.282l-0.095-0.116zM626.716 92.091c-12.15-10.724-28.045-17.459-45.499-18.029l-0.117-0.003c-0.139-0.001-0.304-0.002-0.468-0.002-17.304 0-33.121 6.371-45.232 16.894l0.085-0.072c-11.919 11.141-19.347 26.957-19.347 44.507 0 1.242 0.037 2.476 0.111 3.7l-0.008-0.168c-0.015 0.506-0.023 1.102-0.023 1.699 0 17.126 6.895 32.641 18.061 43.922l-0.005-0.005c10.876 11.168 26.058 18.096 42.858 18.096 0.97 0 1.935-0.023 2.893-0.069l-0.135 0.005c0.506 0.015 1.102 0.023 1.699 0.023 17.126 0 32.641-6.895 43.922-18.061l-0.005 0.005c12.047-11.602 19.745-27.646 20.452-45.487l0.004-0.128c0.173-1.618 0.271-3.494 0.271-5.394 0-16.635-7.558-31.504-19.427-41.362l-0.088-0.071z" />
<glyph unicode="&#xe918;" glyph-name="settings" data-tags="settings" d="M91.868 144.096l116.024-116.024 73.289 37.259c1.894 0.988 4.138 1.567 6.515 1.567 2.949 0 5.69-0.891 7.969-2.418l-0.052 0.033c28.408-16.357 61.269-30.318 95.856-40.182l3.125-0.762c4.631-1.349 8.232-4.849 9.695-9.315l0.029-0.101 25.589-78.049h164.235l25.589 78.049c1.613 4.945 5.697 8.655 10.757 9.708l0.093 0.016c37.637 10.559 70.452 24.523 100.946 42.067l-2.118-1.124c2.045 1.206 4.508 1.918 7.136 1.918 2.365 0 4.595-0.577 6.557-1.598l-0.079 0.037 73.135-37.259 116.024 116.024-37.259 73.135c-0.988 1.898-1.567 4.145-1.567 6.527 0 2.921 0.871 5.639 2.367 7.909l-0.033-0.054c16.38 28.398 30.343 61.243 40.187 95.823l0.757 3.107c1.245 4.723 4.754 8.417 9.266 9.9l0.1 0.028 77.998 25.589v164.287l-78.049 25.589c-4.74 1.531-8.331 5.359-9.499 10.139l-0.020 0.097c-10.693 37.768-24.757 70.677-42.386 101.272l1.136-2.136c-1.206 2.045-1.918 4.508-1.918 7.136 0 2.365 0.577 4.595 1.598 6.557l-0.037-0.079 37.31 73.187-116.024 116.024-73.187-37.259c-1.887-0.989-4.123-1.569-6.493-1.569-2.94 0-5.671 0.892-7.939 2.419l0.051-0.032c-28.422 16.357-61.3 30.318-95.905 40.182l-3.127 0.762c-4.62 1.339-8.218 4.819-9.695 9.264l-0.029 0.101-25.589 78.049h-164.491l-25.589-78.049c-1.543-4.744-5.363-8.345-10.137-9.549l-0.099-0.021c-37.763-10.686-70.672-24.768-101.254-42.43l2.118 1.129c-2.039-1.177-4.485-1.87-7.093-1.87-2.379 0-4.625 0.578-6.601 1.602l0.080-0.038-73.187 37.259-116.024-116.024 37.259-73.289c0.988-1.894 1.567-4.138 1.567-6.515 0-2.949-0.891-5.69-2.418-7.969l0.033 0.052c-16.357-28.408-30.318-61.269-40.182-95.856l-0.762-3.125c-1.339-4.62-4.819-8.218-9.264-9.695l-0.101-0.029-78.049-25.589v-164.235l78.049-25.589c4.766-1.507 8.383-5.343 9.551-10.139l0.020-0.097c10.693-37.768 24.757-70.677 42.386-101.272l-1.136 2.136c1.206-2.045 1.918-4.508 1.918-7.136 0-2.365-0.577-4.595-1.598-6.557l0.037 0.079zM511.541 695.095c0.004 0 0.008 0 0.012 0 136.495 0 247.146-110.651 247.146-247.146s-110.651-247.146-247.146-247.146c-136.495 0-247.146 110.651-247.146 247.146 0 68.309 27.712 130.144 72.506 174.878l0.003 0.003c44.723 44.706 106.495 72.358 174.726 72.368h0.002z" />
<glyph unicode="&#xe919;" glyph-name="multiple" data-tags="multiple" horiz-adv-x="1095" d="M858.453 892.367v-623.909c0-37.353-30.28-67.633-67.633-67.633v0h-414.915c-37.34 0.055-67.598 30.297-67.682 67.625v623.917c0 0.014 0 0.032 0 0.049 0 37.326 30.258 67.584 67.584 67.584 0.034 0 0.069 0 0.103 0h414.91c0.044 0 0.095 0 0.146 0 37.272 0 67.486-30.215 67.486-67.486 0-0.052 0-0.103 0-0.155v0.008zM375.71 177.128c-50.434 0.083-91.297 40.946-91.38 91.372v551.651l-116.395-18.091c-32.631-5.249-57.258-33.206-57.258-66.916 0-3.644 0.288-7.22 0.842-10.708l-0.050 0.385 96.061-616.497c5.417-32.333 33.194-56.667 66.655-56.667 3.737 0 7.402 0.303 10.974 0.887l-0.39-0.053 410.039 63.878c30.759 5.002 54.335 30.176 56.841 61.299l0.015 0.239zM639.025 82.968l-350.549-54.516c-4.185-0.745-9.003-1.17-13.921-1.17-0.009 0-0.017 0-0.026 0h0.001c-45.363 0.234-82.886 33.502-89.752 76.965l-0.067 0.518-92.209 587.727-35.84-5.608c-32.333-5.417-56.667-33.194-56.667-66.655 0-3.737 0.303-7.402 0.887-10.974l-0.053 0.39 96.012-616.497c5.29-32.547 33.172-57.1 66.799-57.149h0.005c0.072 0 0.158 0 0.243 0 3.616 0 7.162 0.302 10.614 0.881l-0.373-0.052 410.039 63.878c32.333 5.417 56.667 33.194 56.667 66.655 0 3.737-0.303 7.402-0.887 10.974l0.053-0.39zM1035.459 770.853l-153.405 17.067v-519.412c-0.083-50.434-40.946-91.297-91.372-91.38h-15.319v-1.95c-3.416-42.322-35.301-76.273-76.329-82.827l-0.519-0.068-35.84-5.608v-5.169c0.725-4.261 1.14-9.169 1.14-14.173 0-6.745-0.753-13.313-2.179-19.627l0.113 0.593 290.085-32.817q3.852 0 7.704 0c34.667 0.163 63.178 26.309 67.067 59.955l0.030 0.315 68.267 620.446c0.261 2.232 0.41 4.818 0.41 7.439 0 34.559-25.92 63.063-59.38 67.134l-0.325 0.032z" />
<glyph unicode="&#xe91a;" glyph-name="multiple1" data-tags="multiple" horiz-adv-x="742" d="M650.971-64h-559.689c-0.034 0-0.074 0-0.113 0-25.167 0-47.943 10.234-64.395 26.767l-0.004 0.004c-16.565 16.453-26.819 39.242-26.819 64.427 0 0.013 0 0.026 0 0.039v-0.002 841.533c0.028 50.359 40.83 91.178 91.179 91.234h560.085c0.053 0 0.115 0 0.177 0 25.043 0 47.709-10.177 64.088-26.621l0.003-0.003c16.504-16.404 26.719-39.119 26.722-64.219v0-841.923c-0.055-50.364-40.869-91.178-91.228-91.234h-0.005zM349.038 556.349v0-294.083h83.87v385.707h-70.071l-93.818-68.998v-80.555l79.97 57.929z" />
<glyph unicode="&#xe91b;" glyph-name="calendar-accept" data-tags="calendar-accept" d="M879.361 839.616h-49.792v12.8c0.020 0.686 0.032 1.493 0.032 2.303 0 45.774-37.106 82.88-82.88 82.88s-82.88-37.106-82.88-82.88c0-0.81 0.011-1.617 0.034-2.421l-0.003 0.118v-12.8h-303.744v12.8c0 0 0 0 0 0.001 0 45.837-37.067 83.017-82.863 83.199h-0.017c0 0-0.001 0-0.001 0-45.738 0-82.816-37.078-82.816-82.816 0-0.135 0-0.27 0.001-0.405v0.021-12.8h-49.792c-79.861-0.109-144.567-64.838-144.64-144.696v-591.942c0.145-79.811 64.824-144.467 144.63-144.576h734.73c79.816 0.109 144.494 64.765 144.64 144.562v591.95c-0.073 79.866-64.779 144.594-144.63 144.704h-0.010zM746.754 871.616c10.216-0.108 18.46-8.397 18.496-18.621v-95.876c0-10.25-8.309-18.56-18.56-18.56s-18.56 8.309-18.56 18.56v95.296c-0.005 0.153-0.007 0.332-0.007 0.512 0 10.301 8.334 18.656 18.628 18.688h0.003zM277.25 871.616c10.257-0.072 18.552-8.367 18.624-18.617v-95.879c-0.036-10.271-8.353-18.588-18.621-18.624h-0.004c-10.16 0.073-18.369 8.325-18.369 18.496 0 0.045 0 0.091 0.001 0.136v-0.007 95.296c-0.007 0.191-0.011 0.415-0.011 0.641 0 10.186 8.207 18.456 18.37 18.559h0.010zM960.001 102.977c-0.145-44.323-36.056-80.211-80.373-80.32h-734.986c-0.019 0-0.042 0-0.064 0-44.411 0-80.43 35.929-80.575 80.306v455.886h895.999zM960.001 623.105h-895.999v71.808c0.109 44.383 36.114 80.32 80.511 80.32 0.045 0 0.091 0 0.136 0h49.785v-18.112c-0.020-0.686-0.032-1.493-0.032-2.303 0-45.774 37.106-82.88 82.88-82.88s82.88 37.106 82.88 82.88c0 0.81-0.011 1.617-0.034 2.421l0.003-0.118v18.112h303.68v-18.112c-0.020-0.686-0.032-1.493-0.032-2.303 0-45.774 37.106-82.88 82.88-82.88s82.88 37.106 82.88 82.88c0 0.81-0.011 1.617-0.034 2.421l0.003-0.118v18.112h49.792c0.057 0 0.125 0 0.192 0 44.398 0 80.403-35.937 80.511-80.31v-0.010zM354.178 268.417l99.328-74.944c5.199-3.955 11.782-6.335 18.921-6.335 8.715 0 16.601 3.547 22.294 9.277l0.002 0.002 171.776 172.8c5.624 5.687 9.097 13.51 9.097 22.144 0 17.396-14.102 31.498-31.498 31.498-8.762 0-16.687-3.578-22.397-9.351l-0.003-0.003-152.447-153.6-77.439 58.432c-5.289 4.186-12.057 6.715-19.415 6.715-17.355 0-31.424-14.069-31.424-31.424 0-10.439 5.090-19.69 12.925-25.405l0.090-0.062z" />
<glyph unicode="&#xe91c;" glyph-name="calendar-decline" data-tags="calendar-decline" d="M879.361 839.393h-49.792v13.184c0.020 0.686 0.032 1.493 0.032 2.303 0 45.774-37.106 82.88-82.88 82.88s-82.88-37.106-82.88-82.88c0-0.81 0.011-1.617 0.034-2.421l-0.003 0.118v-13.184h-303.744v13.184c-0.218 45.672-37.202 82.635-82.863 82.816h-0.017c-45.711-0.036-82.753-37.1-82.753-82.816 0-0.135 0-0.27 0.001-0.405v0.021-12.8h-49.856c-79.839-0.109-144.53-64.802-144.64-144.63v-591.946c0.145-79.811 64.824-144.467 144.63-144.576h734.73c79.816 0.109 144.494 64.765 144.64 144.562v591.95c-0.109 79.839-64.802 144.53-144.63 144.64h-0.010zM746.754 871.393c10.216-0.108 18.46-8.397 18.496-18.621v-95.812c0-10.25-8.309-18.56-18.56-18.56s-18.56 8.309-18.56 18.56v95.616c0 0.038 0 0.083 0 0.128 0 10.299 8.331 18.652 18.621 18.688h0.004zM258.69 852.768c0 10.268 8.324 18.592 18.592 18.592s18.592-8.324 18.592-18.592v-95.808c-0.036-10.271-8.353-18.588-18.621-18.624h-0.004c-10.16 0.073-18.369 8.325-18.369 18.496 0 0.045 0 0.091 0.001 0.136v-0.007 95.616zM960.001 102.818c-0.145-44.323-36.056-80.211-80.373-80.32h-734.986c-0.019 0-0.042 0-0.064 0-44.411 0-80.43 35.929-80.575 80.306v455.886h895.999zM960.001 622.945h-895.999v71.808c0.109 44.383 36.114 80.32 80.511 80.32 0.045 0 0.091 0 0.136 0h49.785v-18.112c-0.020-0.686-0.032-1.493-0.032-2.303 0-45.774 37.106-82.88 82.88-82.88s82.88 37.106 82.88 82.88c0 0.81-0.011 1.617-0.034 2.421l0.003-0.118v18.112h303.68v-18.112c-0.020-0.686-0.032-1.493-0.032-2.303 0-45.774 37.106-82.88 82.88-82.88s82.88 37.106 82.88 82.88c0 0.81-0.011 1.617-0.034 2.421l0.003-0.118v18.112h49.792c0.057 0 0.125 0 0.192 0 44.398 0 80.403-35.937 80.511-80.31v-0.010zM385.026 166.561c5.686-5.679 13.537-9.192 22.208-9.192s16.523 3.513 22.209 9.192v0l81.92 81.92 81.92-81.92c5.603-5.254 13.162-8.482 21.474-8.482 17.355 0 31.424 14.069 31.424 31.424 0 8.312-3.227 15.871-8.498 21.491l0.016-0.017-81.92 81.92 81.92 81.92c6.13 5.749 9.95 13.9 9.95 22.942 0 17.355-14.069 31.424-31.424 31.424-9.042 0-17.193-3.819-22.926-9.932l-0.016-0.017-81.92-81.92-81.92 81.92c-5.603 5.254-13.162 8.482-21.474 8.482-17.355 0-31.424-14.069-31.424-31.424 0-8.312 3.227-15.871 8.498-21.491l-0.016 0.017 81.92-81.92-81.92-81.92c-5.679-5.686-9.192-13.537-9.192-22.208s3.513-16.523 9.192-22.209v0z" />
<glyph unicode="&#xe91d;" glyph-name="calendar-not-sure" data-tags="calendar-not-sure" d="M879.361 839.393h-49.792v13.184c0.020 0.686 0.032 1.493 0.032 2.303 0 45.774-37.106 82.88-82.88 82.88s-82.88-37.106-82.88-82.88c0-0.81 0.011-1.617 0.034-2.421l-0.003 0.118v-13.184h-303.744v13.184c-0.218 45.672-37.202 82.635-82.863 82.816h-0.017c-45.711-0.036-82.753-37.1-82.753-82.816 0-0.135 0-0.27 0.001-0.405v0.021-12.8h-49.856c-79.839-0.109-144.53-64.802-144.64-144.63v-591.946c0.145-79.811 64.824-144.467 144.63-144.576h734.73c79.816 0.109 144.494 64.765 144.64 144.562v591.95c-0.109 79.839-64.802 144.53-144.63 144.64h-0.010zM746.754 871.393c10.216-0.108 18.46-8.397 18.496-18.621v-95.812c0-10.25-8.309-18.56-18.56-18.56s-18.56 8.309-18.56 18.56v95.616c0 0.038 0 0.083 0 0.128 0 10.299 8.331 18.652 18.621 18.688h0.004zM277.25 871.393c10.257-0.072 18.552-8.367 18.624-18.617v-95.815c-0.036-10.271-8.353-18.588-18.621-18.624h-0.004c-10.16 0.073-18.369 8.325-18.369 18.496 0 0.045 0 0.091 0.001 0.136v-0.007 95.616c-0.001 0.076-0.002 0.167-0.002 0.257 0 10.183 8.201 18.452 18.36 18.558h0.010zM960.001 102.818c-0.145-44.323-36.056-80.211-80.373-80.32h-734.986c-0.019 0-0.042 0-0.064 0-44.411 0-80.43 35.929-80.575 80.306v455.886h895.999zM960.001 622.945h-895.999v71.808c0.109 44.383 36.114 80.32 80.511 80.32 0.045 0 0.091 0 0.136 0h49.785v-18.112c-0.020-0.686-0.032-1.493-0.032-2.303 0-45.774 37.106-82.88 82.88-82.88s82.88 37.106 82.88 82.88c0 0.81-0.011 1.617-0.034 2.421l0.003-0.118v18.112h303.68v-18.112c-0.020-0.686-0.032-1.493-0.032-2.303 0-45.774 37.106-82.88 82.88-82.88s82.88 37.106 82.88 82.88c0 0.81-0.011 1.617-0.034 2.421l0.003-0.118v18.112h49.792c0.057 0 0.125 0 0.192 0 44.398 0 80.403-35.937 80.511-80.31v-0.010zM519.938 354.018c0-0.011 0-0.025 0-0.039 0-4.988-2.031-9.502-5.311-12.76l-0.001-0.001c-5.546-5.177-11.707-9.829-18.321-13.804l-0.495-0.276-11.84-7.744c-9.673-6.699-17.328-15.669-22.294-26.16l-0.171-0.4c-4.654-10.1-7.368-21.918-7.368-34.368 0-0.405 0.003-0.809 0.009-1.213l-0.001 0.061v-7.744h81.728v6.976c-0.021 0.429-0.033 0.932-0.033 1.438 0 7.832 2.872 14.994 7.619 20.49l-0.033-0.040c8.561 8.439 17.983 16.052 28.107 22.678l0.693 0.426c11.794 7.612 21.79 16.833 30.004 27.499l0.205 0.277c5.656 8.758 9.018 19.458 9.018 30.944 0 0.911-0.021 1.818-0.063 2.719l0.005-0.128c0.024 0.666 0.037 1.449 0.037 2.235 0 23.504-11.931 44.222-30.066 56.427l-0.243 0.154c-21.194 13.456-47.009 21.443-74.691 21.443-2.61 0-5.204-0.071-7.78-0.211l0.359 0.015c-1.39 0.035-3.027 0.054-4.668 0.054-30.009 0-58.467-6.648-83.978-18.551l1.222 0.512v-71.936c21.294 12.188 46.777 19.434 73.94 19.583h0.044q34.304 0 34.304-18.368zM494.593 228.962c-0.294 0.008-0.639 0.011-0.987 0.011-11.401 0-21.727-4.601-29.224-12.046l0.002 0.002c-7.583-7.739-12.263-18.347-12.263-30.048s4.68-22.31 12.271-30.055l-0.007 0.008c7.875-7.516 18.565-12.142 30.336-12.142s22.462 4.626 30.353 12.158l-0.017-0.016c7.691 7.642 12.451 18.225 12.451 29.92s-4.76 22.278-12.448 29.918l-0.002 0.002c-7.6 7.446-18.018 12.042-29.509 12.042-0.336 0-0.67-0.004-1.004-0.011l0.050 0.001z" />
<glyph unicode="&#xe91e;" glyph-name="settings-outline" data-tags="settings-outline" d="M632.902 876.251c0.012 0.48 0.019 1.045 0.019 1.612 0 35.727-26.58 65.246-61.045 69.859l-0.362 0.039h-0.384c-17.359 2.024-37.472 3.178-57.855 3.178-21.386 0-42.474-1.271-63.195-3.742l2.504 0.243c-34.725-4.507-61.272-33.897-61.272-69.487 0-0.464 0.005-0.927 0.014-1.389l-0.001 0.069c0-8.138 0-16.597 0.384-24.478 0.004-0.164 0.007-0.358 0.007-0.552 0-10.248-6.609-18.953-15.798-22.084l-0.164-0.048c-32.937-11.36-61.415-25.309-87.8-42.236l1.614 0.969s0 0 0 0c-3.563-2.321-7.923-3.7-12.606-3.7-5.676 0-10.878 2.027-14.922 5.397l0.037-0.030-18.647 15.314c-12.133 10.171-27.914 16.349-45.138 16.349-19.077 0-36.384-7.579-49.076-19.89l0.018 0.017c-27.265-27.41-51.563-57.82-72.343-90.677l-1.283-2.173c-6.441-10.386-10.259-22.985-10.259-36.476 0-22.596 10.711-42.691 27.332-55.484l0.164-0.122c6.408-5.063 12.816-10.188 19.224-14.93 5.633-4.329 9.228-11.067 9.228-18.646 0-2.875-0.517-5.627-1.463-8.172l0.053 0.162c-10.070-27.044-17.649-58.556-21.359-91.241l-0.172-1.866c-1.028-10.219-8.571-18.414-18.37-20.415l-0.149-0.026-23.453-5.063c-32.401-6.789-56.386-35.125-56.386-69.062 0-2.352 0.115-4.676 0.34-6.97l-0.023 0.291s0 0 0-0.384c5.083-42.935 14.449-81.948 27.824-119.048l-1.167 3.707s0 0 0 0c10.048-27.124 35.696-46.106 65.777-46.106 6.019 0 11.86 0.759 17.433 2.189l-0.485-0.105c7.881 1.794 16.020 3.909 23.709 5.831 1.71 0.449 3.673 0.706 5.696 0.706 8.405 0 15.772-4.446 19.877-11.115l0.058-0.101c17.65-28.312 37.266-52.86 59.387-74.894l0.014-0.014c4.315-4.206 6.992-10.076 6.992-16.571 0-3.871-0.951-7.52-2.631-10.725l0.061 0.127-11.341-23.132c-4.863-9.323-7.716-20.361-7.716-32.066 0-24.615 12.618-46.283 31.738-58.889l0.264-0.164h0.32c30.677-19.529 65.968-36.836 103.174-50.108l3.709-1.154c6.65-2.312 14.315-3.646 22.293-3.646 28.094 0 52.322 16.556 63.457 40.445l0.18 0.43c3.524 7.241 6.984 14.994 10.253 22.171 3.799 8.183 11.947 13.755 21.395 13.755 0.996 0 1.978-0.062 2.941-0.182l-0.115 0.012c14.35-1.804 30.956-2.832 47.802-2.832s33.453 1.030 49.758 3.028l-1.956-0.196c0.837 0.106 1.806 0.167 2.788 0.167 9.389 0 17.482-5.548 21.181-13.543l0.060-0.144 10.060-21.851c11.365-24.582 35.813-41.331 64.174-41.331 7.942 0 15.578 1.314 22.701 3.735l-0.496-0.146h0.32c40.849 14.624 76.065 32.070 108.842 52.996l-2.152-1.284c19.889 12.57 32.905 34.439 32.905 59.349 0 11.469-2.759 22.293-7.649 31.845l0.184-0.395c-3.46 7.305-7.241 14.802-10.893 21.851-1.634 3.105-2.594 6.785-2.594 10.689 0 6.563 2.711 12.493 7.074 16.731l0.006 0.006c22.286 21.966 42.005 46.433 58.734 72.974l0.987 1.678s0 0 0 0c4.16 6.711 11.484 11.114 19.837 11.114 2.059 0 4.056-0.267 5.957-0.769l-0.162 0.036 23.388-5.767c5.149-1.346 11.061-2.119 17.154-2.119 30.189 0 55.945 18.978 65.988 45.656l0.16 0.485c0.010 0.048 0.016 0.103 0.016 0.16s-0.006 0.112-0.017 0.165l0.001-0.005c12.025 33.419 21.199 72.46 25.849 112.877l0.231 2.464c0.221 2.089 0.348 4.513 0.348 6.967 0 33.619-23.709 61.7-55.317 68.437l-0.458 0.082c-7.881 1.858-16.148 3.524-23.901 5.063-10.005 2.095-17.582 10.345-18.638 20.532l-0.009 0.1c-3.673 34.532-11.106 66.113-21.975 96.046l0.892-2.812s0 0 0 0c-0.874 2.352-1.38 5.069-1.38 7.905 0 7.546 3.584 14.255 9.143 18.519l0.056 0.041 19.224 14.674c16.972 13.007 27.806 33.287 27.806 56.096 0 13.488-3.788 26.092-10.36 36.805l0.175-0.308v0.32c-22.286 34.873-46.762 65.174-74.189 92.516l-0.014 0.014c-12.606 12.291-29.855 19.872-48.875 19.872-17.065 0-32.705-6.103-44.856-16.247l0.112 0.090c-6.408-5.063-12.816-10.509-19.224-15.507-4.027-3.403-9.277-5.472-15.011-5.472-4.71 0-9.094 1.396-12.76 3.796l0.089-0.055c-24.74 16.076-53.166 30.147-83.219 40.776l-2.838 0.875c-9.247 3.193-15.77 11.822-15.77 21.976 0 0.204 0.003 0.408 0.008 0.61l-0.001-0.030zM586.124 877.404l-0.384-24.414c-0.009-0.416-0.014-0.906-0.014-1.397 0-30.707 19.761-56.798 47.26-66.251l0.492-0.147c28.994-10.145 54.056-22.57 77.254-37.623l-1.385 0.842c10.774-7.021 23.958-11.196 38.118-11.196 17.245 0 33.043 6.192 45.292 16.476l-0.109-0.088 18.583 15.314c4.010 3.376 9.232 5.426 14.933 5.426 6.274 0 11.968-2.484 16.152-6.523l-0.007 0.007c24.908-24.822 47.105-52.334 66.126-82.073l1.156-1.933c2.121-3.452 3.379-7.634 3.379-12.109 0-7.589-3.614-14.335-9.216-18.608l-0.057-0.041-19.224-14.93c-16.758-12.916-27.448-32.994-27.448-55.569 0-8.62 1.558-16.876 4.409-24.5l-0.158 0.483c8.771-23.936 15.301-51.809 18.384-80.712l0.136-1.566c3.288-30.793 25.984-55.464 55.48-61.69l0.46-0.082 23.517-5.063c10.691-2.182 18.621-11.508 18.621-22.688 0-0.765-0.037-1.523-0.11-2.269l0.008 0.094c-4.401-39.051-12.744-74.625-24.754-108.464l1.044 3.376c-3.422-8.985-11.965-15.252-21.972-15.252-2.028 0-3.996 0.257-5.873 0.742l0.163-0.035-23.837 5.767c-5.168 1.37-11.101 2.156-17.218 2.156-25.157 0-47.208-13.3-59.503-33.252l-0.173-0.302c-15.646-24.875-33.058-46.443-52.69-65.763l-0.047-0.046c-13.077-12.806-21.186-30.645-21.186-50.376 0-11.665 2.833-22.667 7.85-32.358l-0.185 0.393 10.765-21.467c1.624-3.087 2.576-6.745 2.576-10.625 0-8.096-4.148-15.224-10.436-19.374l-0.086-0.054c-27.812-17.837-59.791-33.684-93.509-45.9l-3.378-1.069c-2.167-0.73-4.664-1.151-7.258-1.151-9.519 0-17.714 5.672-21.389 13.819l-0.060 0.148-10.253 22.235c-11.321 24.305-35.54 40.85-63.626 40.85-3.074 0-6.101-0.198-9.070-0.583l0.351 0.037c-12.666-1.581-27.326-2.483-42.195-2.483s-29.529 0.902-43.926 2.654l1.73-0.172c-2.64 0.353-5.692 0.554-8.791 0.554-28.272 0-52.632-16.752-63.694-40.871l-0.18-0.436-10.060-21.851c-3.725-8.272-11.898-13.927-21.39-13.927-2.546 0-4.997 0.407-7.291 1.158l0.165-0.047c-37.169 13.121-69.222 28.825-99.073 47.698l1.993-1.177c-6.382 4.23-10.533 11.383-10.533 19.504 0 3.899 0.957 7.575 2.649 10.805l-0.061-0.129 10.893 21.915c4.763 9.212 7.555 20.109 7.555 31.658 0 19.626-8.066 37.37-21.064 50.095l-0.012 0.012c-19.577 19.436-36.91 41.087-51.602 64.561l-0.878 1.504c-12.628 20.212-34.755 33.458-59.977 33.458-6.007 0-11.838-0.752-17.404-2.165l0.487 0.105-23.388-5.767c-1.699-0.445-3.648-0.7-5.658-0.7-9.934 0-18.409 6.244-21.715 15.023l-0.053 0.16c-11.115 30.378-19.628 65.863-24.001 102.617l-0.221 2.279c-0.066 0.658-0.103 1.422-0.103 2.195 0 11.276 7.979 20.688 18.598 22.898l0.152 0.027 23.965 5.063c29.759 6.349 52.265 30.939 55.403 61.28l0.026 0.3c3.518 30.536 10.28 58.349 20.033 84.712l-0.81-2.499c2.67 7.122 4.216 15.353 4.216 23.944 0 22.748-10.835 42.966-27.627 55.773l-0.171 0.125-19.224 14.738c-5.605 4.28-9.185 10.965-9.185 18.487 0 4.441 1.248 8.59 3.412 12.116l-0.058-0.101c20.072 31.805 42.147 59.422 66.923 84.353l-0.025-0.025c4.2 4.055 9.926 6.552 16.235 6.552 5.771 0 11.054-2.091 15.133-5.555l18.806-15.48c12.038-10.073 27.686-16.191 44.764-16.191 14.108 0 27.241 4.175 38.23 11.357l-0.268-0.164c21.86 14.072 46.992 26.374 73.55 35.635l2.51 0.762c28.045 9.731 47.819 35.927 47.819 66.742 0 0.528-0.006 1.054-0.018 1.58l0.001-0.079-0.32 24.094c-0.005 0.173-0.007 0.375-0.007 0.58 0 11.787 8.767 21.527 20.136 23.052l0.12 0.013c16.143 1.901 34.842 2.985 53.794 2.985s37.653-1.085 56.039-3.195l-2.246 0.209c11.57-1.599 20.385-11.424 20.385-23.308 0-0.209-0.003-0.418-0.008-0.625l0.001 0.030zM511.921 669.341c-129.314 0-234.143-104.83-234.143-234.143s104.83-234.143 234.143-234.143c129.314 0 234.143 104.83 234.143 234.143v0c-0.073 129.307-104.895 234.106-234.203 234.143h-0.004zM511.921 622.5c103.479 0 187.366-83.887 187.366-187.366s-83.887-187.366-187.366-187.366c-103.479 0-187.366 83.887-187.366 187.366v0c0.036 103.443 83.865 187.293 187.295 187.366h0.007z" />
<glyph unicode="&#xe91f;" glyph-name="lineup" data-tags="lineup" d="M123.734 775.808c-68.336 0-123.734-55.397-123.734-123.734v0-408.149c0-68.336 55.397-123.734 123.734-123.734v0h776.533c68.336 0 123.734 55.397 123.734 123.734v0 408.149c0 68.336-55.397 123.734-123.734 123.734v0zM43.349 243.84v408.235c0.097 44.356 36.028 80.287 80.375 80.384h366.942v-109.653c-88.225-10.058-156.128-84.288-156.128-174.378s67.903-164.321 155.321-174.303l0.808-0.075v-110.677h-366.933c-44.422 0.049-80.421 36.047-80.47 80.464v0.004zM490.666 317.867c-64.145 9.711-112.742 64.46-112.742 130.56s48.597 120.85 112.011 130.469l0.731 0.091zM534.016 578.133c61.985-11.643 108.257-65.346 108.257-129.856s-46.273-118.213-107.437-129.728l-0.82-0.128zM980.479 243.712c-0.12-44.278-35.946-80.148-80.195-80.342h-366.098v111.232c86.043 12.194 151.493 85.355 151.493 173.803s-65.45 161.609-150.56 173.694l-0.933 0.109v110.251h366.080c44.356-0.097 80.287-36.028 80.384-80.375v-0.009z" />
<glyph unicode="&#xe920;" glyph-name="exchange" data-tags="exchange" d="M1011.659 737.069l-170.701 170.633c-7.378 6.186-16.975 9.943-27.45 9.943-23.671 0-42.859-19.188-42.859-42.859 0-10.474 3.757-20.072 9.998-27.516l-0.054 0.067 97.725-97.725h-835.661c-23.56 0-42.658-19.099-42.658-42.658s19.099-42.658 42.658-42.658h835.392l-97.725-97.725c-9.446-7.917-15.41-19.719-15.41-32.916 0-23.671 19.188-42.859 42.859-42.859 13.196 0 25 5.964 32.862 15.343l0.054 0.067 170.701 170.701c7.588 7.786 12.269 18.437 12.269 30.183s-4.68 22.397-12.277 30.192l0.009-0.009zM12.341 164.467l170.701-170.701c7.917-9.446 19.719-15.41 32.916-15.41 23.671 0 42.859 19.188 42.859 42.859 0 13.196-5.964 25-15.343 32.862l-0.067 0.054-97.457 97.927h835.392c23.56 0 42.658 19.099 42.658 42.658s-19.099 42.658-42.658 42.658h-835.392l97.725 97.725c9.446 7.917 15.41 19.719 15.41 32.916 0 23.671-19.188 42.859-42.859 42.859-13.196 0-25-5.964-32.862-15.343l-0.054-0.067-170.969-170.432c-7.588-7.786-12.269-18.437-12.269-30.183s4.68-22.397 12.277-30.192l-0.009 0.009z" />
</font>
</defs>
</svg>
